<svg viewBox="0 0 5000 7000" xmlns="http://www.w3.org/2000/svg">
<path d="M2692,4390 L2692,4171 z" fill="none" stroke="black" stroke-width="1"/>
<path d="M3857.3,11775.6 L3857.3,11816.93 z" fill="none" stroke="black" stroke-width="1"/>
<path d="M7502.75,534.01 L7502.75,1399.49 z" fill="none" stroke="black" stroke-width="1"/>
<path d="M1365,1452 L1365,1233 z" fill="none" stroke="black" stroke-width="1"/>
<path d="M562,4374 L562,4155 z" fill="none" stroke="black" stroke-width="1"/>
<path d="M2921,1452 L2921,1233 z" fill="none" stroke="black" stroke-width="1"/>
<path d="M8034.97,11796.27 L8034.97,11837.6 z" fill="none" stroke="black" stroke-width="1"/>
<path d="M1151,1452 L1151,1233 z" fill="none" stroke="black" stroke-width="1"/>
<path d="M2541,2175 L2541,1956 z" fill="none" stroke="black" stroke-width="1"/>
<path d="M2291.64,1399.49 L2291.64,534.01 z" fill="none" stroke="black" stroke-width="1"/>
<path d="M1709,2175 L1709,1956 z" fill="none" stroke="black" stroke-width="1"/>
<path d="M1673,4585 L1673,4503 z" fill="none" stroke="black" stroke-width="1"/>
<path d="M8500.02,11630.92 L8500.02,11672.26 z" fill="none" stroke="black" stroke-width="1"/>
<path d="M3319,2175 L3319,1956 z" fill="none" stroke="black" stroke-width="1"/>
<path d="M5017.33,11754.93 L5017.33,11713.59 z" fill="none" stroke="black" stroke-width="1"/>
<path d="M4322.35,11630.92 L4322.35,11672.26 z" fill="none" stroke="black" stroke-width="1"/>
<path d="M2143,1452 L2143,1233 z" fill="none" stroke="black" stroke-width="1"/>
<path d="M1097,2175 L1097,1956 z" fill="none" stroke="black" stroke-width="1"/>
<path d="M1130,4374 L1130,4155 z" fill="none" stroke="black" stroke-width="1"/>
<path d="M1541,4819 L1541,5046 z" fill="none" stroke="black" stroke-width="1"/>
<path d="M2134,3652 L2134,3433 z" fill="none" stroke="black" stroke-width="1"/>
<path d="M2526,4390 L2526,4171 z" fill="none" stroke="black" stroke-width="1"/>
<path d="M3429,4835 L3429,5046 z" fill="none" stroke="black" stroke-width="1"/>
<path d="M626,4665 L626,4558 z" fill="none" stroke="black" stroke-width="1"/>
<path d="M2386,1452 L2386,1233 z" fill="none" stroke="black" stroke-width="1"/>
<path d="M1748,2897 L1748,2678 z" fill="none" stroke="black" stroke-width="1"/>
<path d="M965,2897 L965,2678 z" fill="none" stroke="black" stroke-width="1"/>
<path d="M1608,1452 L1608,1233 z" fill="none" stroke="black" stroke-width="1"/>
<path d="M930,3636 L930,3417 z" fill="none" stroke="black" stroke-width="1"/>
<path d="M3382,4649 L3382,4513 z" fill="none" stroke="black" stroke-width="1"/>
<path d="M2124,4390 L2124,4171 z" fill="none" stroke="black" stroke-width="1"/>
<path d="M2916,2897 L2916,2678 z" fill="none" stroke="black" stroke-width="1"/>
<path d="M1583,4665 L1583,4567 z" fill="none" stroke="black" stroke-width="1"/>
<path d="M3166,3652 L3166,3433 z" fill="none" stroke="black" stroke-width="1"/>
<path d="M1762,4617 L1762,4513 z" fill="none" stroke="black" stroke-width="1"/>
<path d="M2140,2175 L2140,1956 z" fill="none" stroke="black" stroke-width="1"/>
<path d="M494,4819 L494,5046 z" fill="none" stroke="black" stroke-width="1"/>
<path d="M830,1452 L830,1233 z" fill="none" stroke="black" stroke-width="1"/>
<path d="M1401,4665 L1401,4558 z" fill="none" stroke="black" stroke-width="1"/>
<path d="M2087.54,11837.6 L2087.54,11796.27 z" fill="none" stroke="black" stroke-width="1"/>
<path d="M2386,2175 L2386,1956 z" fill="none" stroke="black" stroke-width="1"/>
<path d="M2380,3652 L2380,3433 z" fill="none" stroke="black" stroke-width="1"/>
<path d="M1852,4665 L1852,4524 z" fill="none" stroke="black" stroke-width="1"/>
<path d="M2209,4681 L2209,4574 z" fill="none" stroke="black" stroke-width="1"/>
<path d="M2317.48,11610.25 L2317.48,11651.59 z" fill="none" stroke="black" stroke-width="1"/>
<path d="M2348,4835 L2348,5046 z" fill="none" stroke="black" stroke-width="1"/>
<path d="M6407.31,11630.92 L6407.31,11672.26 z" fill="none" stroke="black" stroke-width="1"/>
<path d="M809,4374 L809,4155 z" fill="none" stroke="black" stroke-width="1"/>
<path d="M2301,4665 L2301,4567 z" fill="none" stroke="black" stroke-width="1"/>
<path d="M529,3636 L529,3417 z" fill="none" stroke="black" stroke-width="1"/>
<path d="M1855.02,11775.6 L1855.02,11816.93 z" fill="none" stroke="black" stroke-width="1"/>
<path d="M3317,2897 L3317,2678 z" fill="none" stroke="black" stroke-width="1"/>
<path d="M1870,3636 L1870,3417 z" fill="none" stroke="black" stroke-width="1"/>
<path d="M3484,2897 L3484,2678 z" fill="none" stroke="black" stroke-width="1"/>
<path d="M3018,4681 L3018,4574 z" fill="none" stroke="black" stroke-width="1"/>
<path d="M718,4649 L718,4559 z" fill="none" stroke="black" stroke-width="1"/>
<path d="M4089.82,11837.6 L4089.82,11796.27 z" fill="none" stroke="black" stroke-width="1"/>
<path d="M897,4649 L897,4495 z" fill="none" stroke="black" stroke-width="1"/>
<path d="M529,2175 L529,1956 z" fill="none" stroke="black" stroke-width="1"/>
<path d="M985,1452 L985,1233 z" fill="none" stroke="black" stroke-width="1"/>
<path d="M3162,2897 L3162,2678 z" fill="none" stroke="black" stroke-width="1"/>
<path d="M2707,1452 L2707,1233 z" fill="none" stroke="black" stroke-width="1"/>
<path d="M3319,4390 L3319,4171 z" fill="none" stroke="black" stroke-width="1"/>
<path d="M3164,2175 L3164,1956 z" fill="none" stroke="black" stroke-width="1"/>
<path d="M2886,4835 L2886,5046 z" fill="none" stroke="black" stroke-width="1"/>
<path d="M1588,4374 L1588,4155 z" fill="none" stroke="black" stroke-width="1"/>
<path d="M1269,4819 L1269,5046 z" fill="none" stroke="black" stroke-width="1"/>
<path d="M987,4665 L987,4495 z" fill="none" stroke="black" stroke-width="1"/>
<path d="M2660,4601 L2660,4503 z" fill="none" stroke="black" stroke-width="1"/>
<path d="M3319,1452 L3319,1233 z" fill="none" stroke="black" stroke-width="1"/>
<path d="M1810,4819 L1810,5046 z" fill="none" stroke="black" stroke-width="1"/>
<path d="M9200.17,11754.93 L9200.17,11713.59 z" fill="none" stroke="black" stroke-width="1"/>
<path d="M2371,4390 L2371,4171 z" fill="none" stroke="black" stroke-width="1"/>
<path d="M1035,4819 L1035,5046 z" fill="none" stroke="black" stroke-width="1"/>
<path d="M931,2175 L931,1956 z" fill="none" stroke="black" stroke-width="1"/>
<path d="M964,4374 L964,4155 z" fill="none" stroke="black" stroke-width="1"/>
<path d="M2077,4835 L2077,5046 z" fill="none" stroke="black" stroke-width="1"/>
<path d="M3015.05,11651.59 L3015.05,11610.25 z" fill="none" stroke="black" stroke-width="1"/>
<path d="M2480,4665 L2480,4503 z" fill="none" stroke="black" stroke-width="1"/>
<path d="M3164,1452 L3164,1233 z" fill="none" stroke="black" stroke-width="1"/>
<path d="M7110.05,11672.26 L7110.05,11630.92 z" fill="none" stroke="black" stroke-width="1"/>
<path d="M562,2897 L562,2678 z" fill="none" stroke="black" stroke-width="1"/>
<path d="M2700,3652 L2700,3433 z" fill="none" stroke="black" stroke-width="1"/>
<path d="M1743,4374 L1743,4155 z" fill="none" stroke="black" stroke-width="1"/>
<path d="M3290,4601 L3290,4503 z" fill="none" stroke="black" stroke-width="1"/>
<path d="M1344,4374 L1344,4155 z" fill="none" stroke="black" stroke-width="1"/>
<path d="M1077,4585 L1077,4495 z" fill="none" stroke="black" stroke-width="1"/>
<path d="M1554,2175 L1554,1956 z" fill="none" stroke="black" stroke-width="1"/>
<path d="M8267.5,11858.27 L8267.5,11816.93 z" fill="none" stroke="black" stroke-width="1"/>
<path d="M1550,3636 L1550,3417 z" fill="none" stroke="black" stroke-width="1"/>
<path d="M2618,4835 L2618,5046 z" fill="none" stroke="black" stroke-width="1"/>
<path d="M2921,4390 L2921,4171 z" fill="none" stroke="black" stroke-width="1"/>
<path d="M3561,4665 L3561,4535 z" fill="none" stroke="black" stroke-width="1"/>
<path d="M1347,2897 L1347,2678 z" fill="none" stroke="black" stroke-width="1"/>
<path d="M1875,2175 L1875,1956 z" fill="none" stroke="black" stroke-width="1"/>
<path d="M3158,4835 L3158,5046 z" fill="none" stroke="black" stroke-width="1"/>
<path d="M2534,2897 L2534,2678 z" fill="none" stroke="black" stroke-width="1"/>
<path d="M3321,3652 L3321,3433 z" fill="none" stroke="black" stroke-width="1"/>
<path d="M3486,3652 L3486,3433 z" fill="none" stroke="black" stroke-width="1"/>
<path d="M2570,4681 L2570,4503 z" fill="none" stroke="black" stroke-width="1"/>
<path d="M1095,3636 L1095,3417 z" fill="none" stroke="black" stroke-width="1"/>
<path d="M1705,3636 L1705,3417 z" fill="none" stroke="black" stroke-width="1"/>
<path d="M775,3636 L775,3417 z" fill="none" stroke="black" stroke-width="1"/>
<path d="M1493,4649 L1493,4559 z" fill="none" stroke="black" stroke-width="1"/>
<path d="M3200,4681 L3200,4575 z" fill="none" stroke="black" stroke-width="1"/>
<path d="M5944.84,11796.27 L5944.84,11837.6 z" fill="none" stroke="black" stroke-width="1"/>
<path d="M3485,4390 L3485,4171 z" fill="none" stroke="black" stroke-width="1"/>
<path d="M808,4665 L808,4567 z" fill="none" stroke="black" stroke-width="1"/>
<path d="M1167,4617 L1167,4495 z" fill="none" stroke="black" stroke-width="1"/>
<path d="M2921,2175 L2921,1956 z" fill="none" stroke="black" stroke-width="1"/>
<path d="M3471,4681 L3471,4524 z" fill="none" stroke="black" stroke-width="1"/>
<path d="M2707,2175 L2707,1956 z" fill="none" stroke="black" stroke-width="1"/>
<path d="M1132,2897 L1132,2678 z" fill="none" stroke="black" stroke-width="1"/>
<path d="M1310,2175 L1310,1956 z" fill="none" stroke="black" stroke-width="1"/>
<path d="M3110,4665 L3110,4567 z" fill="none" stroke="black" stroke-width="1"/>
<path d="M3164,4390 L3164,4171 z" fill="none" stroke="black" stroke-width="1"/>
<path d="M1915,2897 L1915,2678 z" fill="none" stroke="black" stroke-width="1"/>
<path d="M3485,1452 L3485,1233 z" fill="none" stroke="black" stroke-width="1"/>
<path d="M2752,4649 L2752,4503 z" fill="none" stroke="black" stroke-width="1"/>
<path d="M3485,2175 L3485,1956 z" fill="none" stroke="black" stroke-width="1"/>
<path d="M2701,2897 L2701,2678 z" fill="none" stroke="black" stroke-width="1"/>
<path d="M6174.78,11858.27 L6174.78,11816.93 z" fill="none" stroke="black" stroke-width="1"/>
<path d="M1308,3636 L1308,3417 z" fill="none" stroke="black" stroke-width="1"/>
<path d="M587,1452 L587,1233 z" fill="none" stroke="black" stroke-width="1"/>
<path d="M2379,2897 L2379,2678 z" fill="none" stroke="black" stroke-width="1"/>
<path d="M1593,2897 L1593,2678 z" fill="none" stroke="black" stroke-width="1"/>
<path d="M2924,3652 L2924,3433 z" fill="none" stroke="black" stroke-width="1"/>
<path d="M1763,1452 L1763,1233 z" fill="none" stroke="black" stroke-width="1"/>
<path d="M2541,1452 L2541,1233 z" fill="none" stroke="black" stroke-width="1"/>
<path d="M1942,4649 L1942,4535 z" fill="none" stroke="black" stroke-width="1"/>
<path d="M2131,2897 L2131,2678 z" fill="none" stroke="black" stroke-width="1"/>
<path d="M1929,1452 L1929,1233 z" fill="none" stroke="black" stroke-width="1"/>
<path d="M2390,4681 L2390,4575 z" fill="none" stroke="black" stroke-width="1"/>
<path d="M766,4819 L766,5046 z" fill="none" stroke="black" stroke-width="1"/>
<path d="M1910,4374 L1910,4155 z" fill="none" stroke="black" stroke-width="1"/>
<path d="M776,2175 L776,1956 z" fill="none" stroke="black" stroke-width="1"/>
<path d="M810,2897 L810,2678 z" fill="none" stroke="black" stroke-width="1"/>
<path d="M2535,3652 L2535,3433 z" fill="none" stroke="black" stroke-width="1"/>
<path d="M1797,4814 L1865,4814 z" fill="none" stroke="black" stroke-width="1"/>
<path d="M1096,1425 L1164,1425 z" fill="none" stroke="black" stroke-width="1"/>
<path d="M1650,3625 L1718,3625 z" fill="none" stroke="black" stroke-width="1"/>
<path d="M3107,2870 L3175,2870 z" fill="none" stroke="black" stroke-width="1"/>
<path d="M2291.64,534.01 L7502.75,534.01 z" fill="none" stroke="black" stroke-width="1"/>
<path d="M3431,3625 L3499,3625 z" fill="none" stroke="black" stroke-width="1"/>
<path d="M3264,1425 L3332,1425 z" fill="none" stroke="black" stroke-width="1"/>
<path d="M1251,1812 L1343,1812 z" fill="none" stroke="black" stroke-width="1"/>
<path d="M1815,3625 L1883,3625 z" fill="none" stroke="black" stroke-width="1"/>
<path d="M1855,4379 L1923,4379 z" fill="none" stroke="black" stroke-width="1"/>
<path d="M1693,2902 L1761,2902 z" fill="none" stroke="black" stroke-width="1"/>
<path d="M1533,4283 L1601,4283 z" fill="none" stroke="black" stroke-width="1"/>
<path d="M2079,3593 L2147,3593 z" fill="none" stroke="black" stroke-width="1"/>
<path d="M470,1812 L562,1812 z" fill="none" stroke="black" stroke-width="1"/>
<path d="M3431,3657 L3499,3657 z" fill="none" stroke="black" stroke-width="1"/>
<path d="M875,3625 L943,3625 z" fill="none" stroke="black" stroke-width="1"/>
<path d="M2471,4347 L2539,4347 z" fill="none" stroke="black" stroke-width="1"/>
<path d="M3109,2180 L3177,2180 z" fill="none" stroke="black" stroke-width="1"/>
<path d="M1654,2116 L1722,2116 z" fill="none" stroke="black" stroke-width="1"/>
<path d="M1533,4315 L1601,4315 z" fill="none" stroke="black" stroke-width="1"/>
<path d="M3264,4315 L3332,4315 z" fill="none" stroke="black" stroke-width="1"/>
<path d="M2069,4379 L2137,4379 z" fill="none" stroke="black" stroke-width="1"/>
<path d="M2862,1812 L2954,1812 z" fill="none" stroke="black" stroke-width="1"/>
<path d="M2869,3561 L2937,3561 z" fill="none" stroke="black" stroke-width="1"/>
<path d="M1253,3561 L1321,3561 z" fill="none" stroke="black" stroke-width="1"/>
<path d="M2324,2870 L2392,2870 z" fill="none" stroke="black" stroke-width="1"/>
<path d="M1495,3561 L1563,3561 z" fill="none" stroke="black" stroke-width="1"/>
<path d="M1253,3625 L1321,3625 z" fill="none" stroke="black" stroke-width="1"/>
<path d="M2324,2838 L2392,2838 z" fill="none" stroke="black" stroke-width="1"/>
<path d="M2652,2116 L2720,2116 z" fill="none" stroke="black" stroke-width="1"/>
<path d="M2085,2148 L2153,2148 z" fill="none" stroke="black" stroke-width="1"/>
<path d="M1292,2870 L1360,2870 z" fill="none" stroke="black" stroke-width="1"/>
<path d="M474,3625 L542,3625 z" fill="none" stroke="black" stroke-width="1"/>
<path d="M527,3257 L619,3257 z" fill="none" stroke="black" stroke-width="1"/>
<path d="M1289,4283 L1357,4283 z" fill="none" stroke="black" stroke-width="1"/>
<path d="M3111,3625 L3179,3625 z" fill="none" stroke="black" stroke-width="1"/>
<path d="M2081,1876 L2173,1876 z" fill="none" stroke="black" stroke-width="1"/>
<path d="M2866,4379 L2934,4379 z" fill="none" stroke="black" stroke-width="1"/>
<path d="M1874,1393 L1942,1393 z" fill="none" stroke="black" stroke-width="1"/>
<path d="M1650,3593 L1718,3593 z" fill="none" stroke="black" stroke-width="1"/>
<path d="M3430,4315 L3498,4315 z" fill="none" stroke="black" stroke-width="1"/>
<path d="M2479,2902 L2547,2902 z" fill="none" stroke="black" stroke-width="1"/>
<path d="M3264,4347 L3332,4347 z" fill="none" stroke="black" stroke-width="1"/>
<path d="M1022,4814 L1090,4814 z" fill="none" stroke="black" stroke-width="1"/>
<path d="M2637,4315 L2705,4315 z" fill="none" stroke="black" stroke-width="1"/>
<path d="M503,2534 L595,2534 z" fill="none" stroke="black" stroke-width="1"/>
<path d="M2486,2116 L2554,2116 z" fill="none" stroke="black" stroke-width="1"/>
<path d="M2076,2870 L2144,2870 z" fill="none" stroke="black" stroke-width="1"/>
<path d="M1288,2566 L1380,2566 z" fill="none" stroke="black" stroke-width="1"/>
<path d="M507,4283 L575,4283 z" fill="none" stroke="black" stroke-width="1"/>
<path d="M1874,1425 L1942,1425 z" fill="none" stroke="black" stroke-width="1"/>
<path d="M2862,1844 L2954,1844 z" fill="none" stroke="black" stroke-width="1"/>
<path d="M930,1425 L998,1425 z" fill="none" stroke="black" stroke-width="1"/>
<path d="M2486,1393 L2554,1393 z" fill="none" stroke="black" stroke-width="1"/>
<path d="M2862,4011 L2954,4011 z" fill="none" stroke="black" stroke-width="1"/>
<path d="M474,2148 L542,2148 z" fill="none" stroke="black" stroke-width="1"/>
<path d="M2471,4315 L2539,4315 z" fill="none" stroke="black" stroke-width="1"/>
<path d="M876,2148 L944,2148 z" fill="none" stroke="black" stroke-width="1"/>
<path d="M1688,4315 L1756,4315 z" fill="none" stroke="black" stroke-width="1"/>
<path d="M1249,3257 L1341,3257 z" fill="none" stroke="black" stroke-width="1"/>
<path d="M2865,3289 L2957,3289 z" fill="none" stroke="black" stroke-width="1"/>
<path d="M3429,2902 L3497,2902 z" fill="none" stroke="black" stroke-width="1"/>
<path d="M2331,2116 L2399,2116 z" fill="none" stroke="black" stroke-width="1"/>
<path d="M2331,2148 L2399,2148 z" fill="none" stroke="black" stroke-width="1"/>
<path d="M3264,2148 L3332,2148 z" fill="none" stroke="black" stroke-width="1"/>
<path d="M1289,4347 L1357,4347 z" fill="none" stroke="black" stroke-width="1"/>
<path d="M1533,4379 L1601,4379 z" fill="none" stroke="black" stroke-width="1"/>
<path d="M3430,2148 L3498,2148 z" fill="none" stroke="black" stroke-width="1"/>
<path d="M2857,2566 L2949,2566 z" fill="none" stroke="black" stroke-width="1"/>
<path d="M1820,2148 L1888,2148 z" fill="none" stroke="black" stroke-width="1"/>
<path d="M2652,2180 L2720,2180 z" fill="none" stroke="black" stroke-width="1"/>
<path d="M1654,2180 L1722,2180 z" fill="none" stroke="black" stroke-width="1"/>
<path d="M2072,2534 L2164,2534 z" fill="none" stroke="black" stroke-width="1"/>
<path d="M2129,2534 L2221,2534 z" fill="none" stroke="black" stroke-width="1"/>
<path d="M527,1812 L619,1812 z" fill="none" stroke="black" stroke-width="1"/>
<path d="M1499,2148 L1567,2148 z" fill="none" stroke="black" stroke-width="1"/>
<path d="M3264,2116 L3332,2116 z" fill="none" stroke="black" stroke-width="1"/>
<path d="M3430,4379 L3498,4379 z" fill="none" stroke="black" stroke-width="1"/>
<path d="M3015.05,11610.25 L2317.48,11610.25 z" fill="none" stroke="black" stroke-width="1"/>
<path d="M754,4347 L822,4347 z" fill="none" stroke="black" stroke-width="1"/>
<path d="M2866,4283 L2934,4283 z" fill="none" stroke="black" stroke-width="1"/>
<path d="M3109,4347 L3177,4347 z" fill="none" stroke="black" stroke-width="1"/>
<path d="M2637,4347 L2705,4347 z" fill="none" stroke="black" stroke-width="1"/>
<path d="M2869,3593 L2937,3593 z" fill="none" stroke="black" stroke-width="1"/>
<path d="M2316,4283 L2384,4283 z" fill="none" stroke="black" stroke-width="1"/>
<path d="M721,2180 L789,2180 z" fill="none" stroke="black" stroke-width="1"/>
<path d="M474,3593 L542,3593 z" fill="none" stroke="black" stroke-width="1"/>
<path d="M470,1844 L562,1844 z" fill="none" stroke="black" stroke-width="1"/>
<path d="M3431,3593 L3499,3593 z" fill="none" stroke="black" stroke-width="1"/>
<path d="M1077,2902 L1145,2902 z" fill="none" stroke="black" stroke-width="1"/>
<path d="M2088,1425 L2156,1425 z" fill="none" stroke="black" stroke-width="1"/>
<path d="M481,4814 L549,4814 z" fill="none" stroke="black" stroke-width="1"/>
<path d="M1075,4379 L1143,4379 z" fill="none" stroke="black" stroke-width="1"/>
<path d="M3107,2902 L3175,2902 z" fill="none" stroke="black" stroke-width="1"/>
<path d="M2480,3561 L2548,3561 z" fill="none" stroke="black" stroke-width="1"/>
<path d="M2866,1425 L2934,1425 z" fill="none" stroke="black" stroke-width="1"/>
<path d="M2069,4315 L2137,4315 z" fill="none" stroke="black" stroke-width="1"/>
<path d="M503,4043 L595,4043 z" fill="none" stroke="black" stroke-width="1"/>
<path d="M1342,3979 L1434,3979 z" fill="none" stroke="black" stroke-width="1"/>
<path d="M532,1425 L600,1425 z" fill="none" stroke="black" stroke-width="1"/>
<path d="M2331,1393 L2399,1393 z" fill="none" stroke="black" stroke-width="1"/>
<path d="M1077,2838 L1145,2838 z" fill="none" stroke="black" stroke-width="1"/>
<path d="M2079,3625 L2147,3625 z" fill="none" stroke="black" stroke-width="1"/>
<path d="M1553,1457 L1621,1457 z" fill="none" stroke="black" stroke-width="1"/>
<path d="M2316,4315 L2384,4315 z" fill="none" stroke="black" stroke-width="1"/>
<path d="M3264,4283 L3332,4283 z" fill="none" stroke="black" stroke-width="1"/>
<path d="M1533,4347 L1601,4347 z" fill="none" stroke="black" stroke-width="1"/>
<path d="M2325,3593 L2393,3593 z" fill="none" stroke="black" stroke-width="1"/>
<path d="M2129,2566 L2221,2566 z" fill="none" stroke="black" stroke-width="1"/>
<path d="M1289,4379 L1357,4379 z" fill="none" stroke="black" stroke-width="1"/>
<path d="M1538,2870 L1606,2870 z" fill="none" stroke="black" stroke-width="1"/>
<path d="M1708,1393 L1776,1393 z" fill="none" stroke="black" stroke-width="1"/>
<path d="M2486,1457 L2554,1457 z" fill="none" stroke="black" stroke-width="1"/>
<path d="M1255,2116 L1323,2116 z" fill="none" stroke="black" stroke-width="1"/>
<path d="M2652,1425 L2720,1425 z" fill="none" stroke="black" stroke-width="1"/>
<path d="M2075,3289 L2167,3289 z" fill="none" stroke="black" stroke-width="1"/>
<path d="M1285,4011 L1377,4011 z" fill="none" stroke="black" stroke-width="1"/>
<path d="M2861,2902 L2929,2902 z" fill="none" stroke="black" stroke-width="1"/>
<path d="M2866,1393 L2934,1393 z" fill="none" stroke="black" stroke-width="1"/>
<path d="M1654,2148 L1722,2148 z" fill="none" stroke="black" stroke-width="1"/>
<path d="M2866,4347 L2934,4347 z" fill="none" stroke="black" stroke-width="1"/>
<path d="M910,2870 L978,2870 z" fill="none" stroke="black" stroke-width="1"/>
<path d="M470,3257 L562,3257 z" fill="none" stroke="black" stroke-width="1"/>
<path d="M1708,1425 L1776,1425 z" fill="none" stroke="black" stroke-width="1"/>
<path d="M2645,3561 L2713,3561 z" fill="none" stroke="black" stroke-width="1"/>
<path d="M2324,2902 L2392,2902 z" fill="none" stroke="black" stroke-width="1"/>
<path d="M876,2116 L944,2116 z" fill="none" stroke="black" stroke-width="1"/>
<path d="M2081,1844 L2173,1844 z" fill="none" stroke="black" stroke-width="1"/>
<path d="M775,1425 L843,1425 z" fill="none" stroke="black" stroke-width="1"/>
<path d="M7502.75,1399.49 L2291.64,1399.49 z" fill="none" stroke="black" stroke-width="1"/>
<path d="M930,1457 L998,1457 z" fill="none" stroke="black" stroke-width="1"/>
<path d="M1499,2180 L1567,2180 z" fill="none" stroke="black" stroke-width="1"/>
<path d="M2331,1425 L2399,1425 z" fill="none" stroke="black" stroke-width="1"/>
<path d="M3429,2870 L3497,2870 z" fill="none" stroke="black" stroke-width="1"/>
<path d="M2065,4011 L2157,4011 z" fill="none" stroke="black" stroke-width="1"/>
<path d="M3264,1393 L3332,1393 z" fill="none" stroke="black" stroke-width="1"/>
<path d="M909,4283 L977,4283 z" fill="none" stroke="black" stroke-width="1"/>
<path d="M474,2116 L542,2116 z" fill="none" stroke="black" stroke-width="1"/>
<path d="M3430,2116 L3498,2116 z" fill="none" stroke="black" stroke-width="1"/>
<path d="M2857,2598 L2949,2598 z" fill="none" stroke="black" stroke-width="1"/>
<path d="M1815,3593 L1883,3593 z" fill="none" stroke="black" stroke-width="1"/>
<path d="M3266,3625 L3334,3625 z" fill="none" stroke="black" stroke-width="1"/>
<path d="M1855,4347 L1923,4347 z" fill="none" stroke="black" stroke-width="1"/>
<path d="M3430,4347 L3498,4347 z" fill="none" stroke="black" stroke-width="1"/>
<path d="M1538,2838 L1606,2838 z" fill="none" stroke="black" stroke-width="1"/>
<path d="M1860,2838 L1928,2838 z" fill="none" stroke="black" stroke-width="1"/>
<path d="M507,4347 L575,4347 z" fill="none" stroke="black" stroke-width="1"/>
<path d="M3266,3593 L3334,3593 z" fill="none" stroke="black" stroke-width="1"/>
<path d="M3430,4283 L3498,4283 z" fill="none" stroke="black" stroke-width="1"/>
<path d="M1860,2902 L1928,2902 z" fill="none" stroke="black" stroke-width="1"/>
<path d="M1650,3561 L1718,3561 z" fill="none" stroke="black" stroke-width="1"/>
<path d="M3111,3593 L3179,3593 z" fill="none" stroke="black" stroke-width="1"/>
<path d="M2316,4347 L2384,4347 z" fill="none" stroke="black" stroke-width="1"/>
<path d="M720,3593 L788,3593 z" fill="none" stroke="black" stroke-width="1"/>
<path d="M2865,3321 L2957,3321 z" fill="none" stroke="black" stroke-width="1"/>
<path d="M1855,4315 L1923,4315 z" fill="none" stroke="black" stroke-width="1"/>
<path d="M3429,2838 L3497,2838 z" fill="none" stroke="black" stroke-width="1"/>
<path d="M2331,2180 L2399,2180 z" fill="none" stroke="black" stroke-width="1"/>
<path d="M507,2902 L575,2902 z" fill="none" stroke="black" stroke-width="1"/>
<path d="M2079,3561 L2147,3561 z" fill="none" stroke="black" stroke-width="1"/>
<path d="M1075,4283 L1143,4283 z" fill="none" stroke="black" stroke-width="1"/>
<path d="M2081,1812 L2173,1812 z" fill="none" stroke="black" stroke-width="1"/>
<path d="M3109,4315 L3177,4315 z" fill="none" stroke="black" stroke-width="1"/>
<path d="M1042,2148 L1110,2148 z" fill="none" stroke="black" stroke-width="1"/>
<path d="M560,3979 L652,3979 z" fill="none" stroke="black" stroke-width="1"/>
<path d="M1553,1425 L1621,1425 z" fill="none" stroke="black" stroke-width="1"/>
<path d="M910,2902 L978,2902 z" fill="none" stroke="black" stroke-width="1"/>
<path d="M2865,3257 L2957,3257 z" fill="none" stroke="black" stroke-width="1"/>
<path d="M875,3593 L943,3593 z" fill="none" stroke="black" stroke-width="1"/>
<path d="M2652,2148 L2720,2148 z" fill="none" stroke="black" stroke-width="1"/>
<path d="M470,3289 L562,3289 z" fill="none" stroke="black" stroke-width="1"/>
<path d="M1042,2180 L1110,2180 z" fill="none" stroke="black" stroke-width="1"/>
<path d="M2331,1457 L2399,1457 z" fill="none" stroke="black" stroke-width="1"/>
<path d="M1075,4347 L1143,4347 z" fill="none" stroke="black" stroke-width="1"/>
<path d="M720,3625 L788,3625 z" fill="none" stroke="black" stroke-width="1"/>
<path d="M2866,2148 L2934,2148 z" fill="none" stroke="black" stroke-width="1"/>
<path d="M875,3561 L943,3561 z" fill="none" stroke="black" stroke-width="1"/>
<path d="M2132,3257 L2224,3257 z" fill="none" stroke="black" stroke-width="1"/>
<path d="M1688,4283 L1756,4283 z" fill="none" stroke="black" stroke-width="1"/>
<path d="M1693,2838 L1761,2838 z" fill="none" stroke="black" stroke-width="1"/>
<path d="M507,4315 L575,4315 z" fill="none" stroke="black" stroke-width="1"/>
<path d="M503,3979 L595,3979 z" fill="none" stroke="black" stroke-width="1"/>
<path d="M1688,4379 L1756,4379 z" fill="none" stroke="black" stroke-width="1"/>
<path d="M876,2180 L944,2180 z" fill="none" stroke="black" stroke-width="1"/>
<path d="M3109,2148 L3177,2148 z" fill="none" stroke="black" stroke-width="1"/>
<path d="M3264,2180 L3332,2180 z" fill="none" stroke="black" stroke-width="1"/>
<path d="M720,3561 L788,3561 z" fill="none" stroke="black" stroke-width="1"/>
<path d="M2480,3593 L2548,3593 z" fill="none" stroke="black" stroke-width="1"/>
<path d="M532,1457 L600,1457 z" fill="none" stroke="black" stroke-width="1"/>
<path d="M6407.31,11672.26 L7110.05,11672.26 z" fill="none" stroke="black" stroke-width="1"/>
<path d="M2072,2598 L2164,2598 z" fill="none" stroke="black" stroke-width="1"/>
<path d="M507,4379 L575,4379 z" fill="none" stroke="black" stroke-width="1"/>
<path d="M503,2598 L595,2598 z" fill="none" stroke="black" stroke-width="1"/>
<path d="M1874,1457 L1942,1457 z" fill="none" stroke="black" stroke-width="1"/>
<path d="M1820,2180 L1888,2180 z" fill="none" stroke="black" stroke-width="1"/>
<path d="M1292,2902 L1360,2902 z" fill="none" stroke="black" stroke-width="1"/>
<path d="M3266,3561 L3334,3561 z" fill="none" stroke="black" stroke-width="1"/>
<path d="M2085,2180 L2153,2180 z" fill="none" stroke="black" stroke-width="1"/>
<path d="M2076,2902 L2144,2902 z" fill="none" stroke="black" stroke-width="1"/>
<path d="M1855,4283 L1923,4283 z" fill="none" stroke="black" stroke-width="1"/>
<path d="M3109,4283 L3177,4283 z" fill="none" stroke="black" stroke-width="1"/>
<path d="M909,4347 L977,4347 z" fill="none" stroke="black" stroke-width="1"/>
<path d="M1288,2598 L1380,2598 z" fill="none" stroke="black" stroke-width="1"/>
<path d="M2088,1393 L2156,1393 z" fill="none" stroke="black" stroke-width="1"/>
<path d="M2325,3657 L2393,3657 z" fill="none" stroke="black" stroke-width="1"/>
<path d="M2479,2838 L2547,2838 z" fill="none" stroke="black" stroke-width="1"/>
<path d="M1249,3289 L1341,3289 z" fill="none" stroke="black" stroke-width="1"/>
<path d="M1345,2534 L1437,2534 z" fill="none" stroke="black" stroke-width="1"/>
<path d="M2866,4315 L2934,4315 z" fill="none" stroke="black" stroke-width="1"/>
<path d="M755,2838 L823,2838 z" fill="none" stroke="black" stroke-width="1"/>
<path d="M3109,1393 L3177,1393 z" fill="none" stroke="black" stroke-width="1"/>
<path d="M2869,3625 L2937,3625 z" fill="none" stroke="black" stroke-width="1"/>
<path d="M1042,2116 L1110,2116 z" fill="none" stroke="black" stroke-width="1"/>
<path d="M1310,1457 L1378,1457 z" fill="none" stroke="black" stroke-width="1"/>
<path d="M2645,3657 L2713,3657 z" fill="none" stroke="black" stroke-width="1"/>
<path d="M2862,3979 L2954,3979 z" fill="none" stroke="black" stroke-width="1"/>
<path d="M2076,2838 L2144,2838 z" fill="none" stroke="black" stroke-width="1"/>
<path d="M721,2116 L789,2116 z" fill="none" stroke="black" stroke-width="1"/>
<path d="M3109,1425 L3177,1425 z" fill="none" stroke="black" stroke-width="1"/>
<path d="M2857,2534 L2949,2534 z" fill="none" stroke="black" stroke-width="1"/>
<path d="M1708,1457 L1776,1457 z" fill="none" stroke="black" stroke-width="1"/>
<path d="M1251,1844 L1343,1844 z" fill="none" stroke="black" stroke-width="1"/>
<path d="M532,1393 L600,1393 z" fill="none" stroke="black" stroke-width="1"/>
<path d="M3262,2902 L3330,2902 z" fill="none" stroke="black" stroke-width="1"/>
<path d="M1495,3593 L1563,3593 z" fill="none" stroke="black" stroke-width="1"/>
<path d="M1538,2902 L1606,2902 z" fill="none" stroke="black" stroke-width="1"/>
<path d="M754,4283 L822,4283 z" fill="none" stroke="black" stroke-width="1"/>
<path d="M2075,3257 L2167,3257 z" fill="none" stroke="black" stroke-width="1"/>
<path d="M755,2870 L823,2870 z" fill="none" stroke="black" stroke-width="1"/>
<path d="M2138,1812 L2230,1812 z" fill="none" stroke="black" stroke-width="1"/>
<path d="M754,4379 L822,4379 z" fill="none" stroke="black" stroke-width="1"/>
<path d="M754,4315 L822,4315 z" fill="none" stroke="black" stroke-width="1"/>
<path d="M3430,1457 L3498,1457 z" fill="none" stroke="black" stroke-width="1"/>
<path d="M2861,2838 L2929,2838 z" fill="none" stroke="black" stroke-width="1"/>
<path d="M1285,4043 L1377,4043 z" fill="none" stroke="black" stroke-width="1"/>
<path d="M1499,2116 L1567,2116 z" fill="none" stroke="black" stroke-width="1"/>
<path d="M2866,2116 L2934,2116 z" fill="none" stroke="black" stroke-width="1"/>
<path d="M1820,2116 L1888,2116 z" fill="none" stroke="black" stroke-width="1"/>
<path d="M2486,2148 L2554,2148 z" fill="none" stroke="black" stroke-width="1"/>
<path d="M2646,2838 L2714,2838 z" fill="none" stroke="black" stroke-width="1"/>
<path d="M2645,3625 L2713,3625 z" fill="none" stroke="black" stroke-width="1"/>
<path d="M2637,4283 L2705,4283 z" fill="none" stroke="black" stroke-width="1"/>
<path d="M1096,1393 L1164,1393 z" fill="none" stroke="black" stroke-width="1"/>
<path d="M1253,3593 L1321,3593 z" fill="none" stroke="black" stroke-width="1"/>
<path d="M2645,3593 L2713,3593 z" fill="none" stroke="black" stroke-width="1"/>
<path d="M2866,2180 L2934,2180 z" fill="none" stroke="black" stroke-width="1"/>
<path d="M2471,4283 L2539,4283 z" fill="none" stroke="black" stroke-width="1"/>
<path d="M1310,1425 L1378,1425 z" fill="none" stroke="black" stroke-width="1"/>
<path d="M1075,4315 L1143,4315 z" fill="none" stroke="black" stroke-width="1"/>
<path d="M1860,2870 L1928,2870 z" fill="none" stroke="black" stroke-width="1"/>
<path d="M775,1393 L843,1393 z" fill="none" stroke="black" stroke-width="1"/>
<path d="M2637,4379 L2705,4379 z" fill="none" stroke="black" stroke-width="1"/>
<path d="M2480,3657 L2548,3657 z" fill="none" stroke="black" stroke-width="1"/>
<path d="M1255,2180 L1323,2180 z" fill="none" stroke="black" stroke-width="1"/>
<path d="M2479,2870 L2547,2870 z" fill="none" stroke="black" stroke-width="1"/>
<path d="M2862,1876 L2954,1876 z" fill="none" stroke="black" stroke-width="1"/>
<path d="M2861,2870 L2929,2870 z" fill="none" stroke="black" stroke-width="1"/>
<path d="M2652,1457 L2720,1457 z" fill="none" stroke="black" stroke-width="1"/>
<path d="M1553,1393 L1621,1393 z" fill="none" stroke="black" stroke-width="1"/>
<path d="M910,2838 L978,2838 z" fill="none" stroke="black" stroke-width="1"/>
<path d="M1077,2870 L1145,2870 z" fill="none" stroke="black" stroke-width="1"/>
<path d="M3109,2116 L3177,2116 z" fill="none" stroke="black" stroke-width="1"/>
<path d="M2922,3257 L3014,3257 z" fill="none" stroke="black" stroke-width="1"/>
<path d="M3264,1457 L3332,1457 z" fill="none" stroke="black" stroke-width="1"/>
<path d="M2122,3979 L2214,3979 z" fill="none" stroke="black" stroke-width="1"/>
<path d="M1255,2148 L1323,2148 z" fill="none" stroke="black" stroke-width="1"/>
<path d="M1688,4347 L1756,4347 z" fill="none" stroke="black" stroke-width="1"/>
<path d="M3431,3561 L3499,3561 z" fill="none" stroke="black" stroke-width="1"/>
<path d="M2646,2870 L2714,2870 z" fill="none" stroke="black" stroke-width="1"/>
<path d="M2486,2180 L2554,2180 z" fill="none" stroke="black" stroke-width="1"/>
<path d="M3430,1425 L3498,1425 z" fill="none" stroke="black" stroke-width="1"/>
<path d="M909,4315 L977,4315 z" fill="none" stroke="black" stroke-width="1"/>
<path d="M3430,1393 L3498,1393 z" fill="none" stroke="black" stroke-width="1"/>
<path d="M2480,3625 L2548,3625 z" fill="none" stroke="black" stroke-width="1"/>
<path d="M2088,1457 L2156,1457 z" fill="none" stroke="black" stroke-width="1"/>
<path d="M474,2180 L542,2180 z" fill="none" stroke="black" stroke-width="1"/>
<path d="M2069,4283 L2137,4283 z" fill="none" stroke="black" stroke-width="1"/>
<path d="M560,2534 L652,2534 z" fill="none" stroke="black" stroke-width="1"/>
<path d="M1288,2534 L1380,2534 z" fill="none" stroke="black" stroke-width="1"/>
<path d="M1308,1812 L1400,1812 z" fill="none" stroke="black" stroke-width="1"/>
<path d="M3430,2180 L3498,2180 z" fill="none" stroke="black" stroke-width="1"/>
<path d="M2069,4347 L2137,4347 z" fill="none" stroke="black" stroke-width="1"/>
<path d="M3262,2838 L3330,2838 z" fill="none" stroke="black" stroke-width="1"/>
<path d="M1040,3593 L1108,3593 z" fill="none" stroke="black" stroke-width="1"/>
<path d="M721,2148 L789,2148 z" fill="none" stroke="black" stroke-width="1"/>
<path d="M2869,3657 L2937,3657 z" fill="none" stroke="black" stroke-width="1"/>
<path d="M2075,3321 L2167,3321 z" fill="none" stroke="black" stroke-width="1"/>
<path d="M909,4379 L977,4379 z" fill="none" stroke="black" stroke-width="1"/>
<path d="M755,2902 L823,2902 z" fill="none" stroke="black" stroke-width="1"/>
<path d="M1096,1457 L1164,1457 z" fill="none" stroke="black" stroke-width="1"/>
<path d="M930,1393 L998,1393 z" fill="none" stroke="black" stroke-width="1"/>
<path d="M1528,4814 L1596,4814 z" fill="none" stroke="black" stroke-width="1"/>
<path d="M2646,2902 L2714,2902 z" fill="none" stroke="black" stroke-width="1"/>
<path d="M1306,3257 L1398,3257 z" fill="none" stroke="black" stroke-width="1"/>
<path d="M3109,1457 L3177,1457 z" fill="none" stroke="black" stroke-width="1"/>
<path d="M1040,3561 L1108,3561 z" fill="none" stroke="black" stroke-width="1"/>
<path d="M3264,4379 L3332,4379 z" fill="none" stroke="black" stroke-width="1"/>
<path d="M2862,4043 L2954,4043 z" fill="none" stroke="black" stroke-width="1"/>
<path d="M2914,2566 L3006,2566 z" fill="none" stroke="black" stroke-width="1"/>
<path d="M503,2566 L595,2566 z" fill="none" stroke="black" stroke-width="1"/>
<path d="M1292,2838 L1360,2838 z" fill="none" stroke="black" stroke-width="1"/>
<path d="M2317.48,11651.59 L3015.05,11651.59 z" fill="none" stroke="black" stroke-width="1"/>
<path d="M1040,3625 L1108,3625 z" fill="none" stroke="black" stroke-width="1"/>
<path d="M2325,3625 L2393,3625 z" fill="none" stroke="black" stroke-width="1"/>
<path d="M2914,2534 L3006,2534 z" fill="none" stroke="black" stroke-width="1"/>
<path d="M2325,3561 L2393,3561 z" fill="none" stroke="black" stroke-width="1"/>
<path d="M775,1457 L843,1457 z" fill="none" stroke="black" stroke-width="1"/>
<path d="M2079,3657 L2147,3657 z" fill="none" stroke="black" stroke-width="1"/>
<path d="M2652,1393 L2720,1393 z" fill="none" stroke="black" stroke-width="1"/>
<path d="M1289,4315 L1357,4315 z" fill="none" stroke="black" stroke-width="1"/>
<path d="M3111,3561 L3179,3561 z" fill="none" stroke="black" stroke-width="1"/>
<path d="M1310,1393 L1378,1393 z" fill="none" stroke="black" stroke-width="1"/>
<path d="M2065,3979 L2157,3979 z" fill="none" stroke="black" stroke-width="1"/>
<path d="M2065,4043 L2157,4043 z" fill="none" stroke="black" stroke-width="1"/>
<path d="M3111,3657 L3179,3657 z" fill="none" stroke="black" stroke-width="1"/>
<path d="M2316,4379 L2384,4379 z" fill="none" stroke="black" stroke-width="1"/>
<path d="M2085,2116 L2153,2116 z" fill="none" stroke="black" stroke-width="1"/>
<path d="M1495,3625 L1563,3625 z" fill="none" stroke="black" stroke-width="1"/>
<path d="M3262,2870 L3330,2870 z" fill="none" stroke="black" stroke-width="1"/>
<path d="M1285,3979 L1377,3979 z" fill="none" stroke="black" stroke-width="1"/>
<path d="M507,2838 L575,2838 z" fill="none" stroke="black" stroke-width="1"/>
<path d="M1815,3561 L1883,3561 z" fill="none" stroke="black" stroke-width="1"/>
<path d="M3266,3657 L3334,3657 z" fill="none" stroke="black" stroke-width="1"/>
<path d="M1256,4814 L1324,4814 z" fill="none" stroke="black" stroke-width="1"/>
<path d="M474,3561 L542,3561 z" fill="none" stroke="black" stroke-width="1"/>
<path d="M507,2870 L575,2870 z" fill="none" stroke="black" stroke-width="1"/>
<path d="M3109,4379 L3177,4379 z" fill="none" stroke="black" stroke-width="1"/>
<path d="M503,4011 L595,4011 z" fill="none" stroke="black" stroke-width="1"/>
<path d="M2486,1425 L2554,1425 z" fill="none" stroke="black" stroke-width="1"/>
<path d="M3107,2838 L3175,2838 z" fill="none" stroke="black" stroke-width="1"/>
<path d="M2072,2566 L2164,2566 z" fill="none" stroke="black" stroke-width="1"/>
<path d="M2919,1812 L3011,1812 z" fill="none" stroke="black" stroke-width="1"/>
<path d="M753,4814 L821,4814 z" fill="none" stroke="black" stroke-width="1"/>
<path d="M2866,1457 L2934,1457 z" fill="none" stroke="black" stroke-width="1"/>
<path d="M7110.05,11630.92 L6407.31,11630.92 z" fill="none" stroke="black" stroke-width="1"/>
<path d="M1693,2870 L1761,2870 z" fill="none" stroke="black" stroke-width="1"/>
<path d="M2471,4379 L2539,4379 z" fill="none" stroke="black" stroke-width="1"/>
<circle cx="21.96" cy="0" fill="red" r="3" stroke="black" stroke-width="1"/>
<circle cx="25.67" cy="0" fill="red" r="3" stroke="black" stroke-width="1"/>
<circle cx="29.28" cy="0" fill="red" r="3" stroke="black" stroke-width="1"/>
<circle cx="18.32" cy="0" fill="red" r="3" stroke="black" stroke-width="1"/>
<circle cx="18.32" cy="0" fill="red" r="3" stroke="black" stroke-width="1"/>
<circle cx="21.96" cy="0" fill="red" r="3" stroke="black" stroke-width="1"/>
<circle cx="18.32" cy="0" fill="red" r="3" stroke="black" stroke-width="1"/>
<circle cx="29.28" cy="0" fill="red" r="3" stroke="black" stroke-width="1"/>
<circle cx="36.7" cy="0" fill="red" r="3" stroke="black" stroke-width="1"/>
<circle cx="29.28" cy="0" fill="red" r="3" stroke="black" stroke-width="1"/>
<circle cx="54.96" cy="0" fill="red" r="3" stroke="black" stroke-width="1"/>
<circle cx="0" cy="79.37" fill="red" r="3" stroke="black" stroke-width="1"/>
<circle cx="19.25" cy="0" fill="red" r="3" stroke="black" stroke-width="1"/>
<circle cx="0" cy="66.28" fill="red" r="3" stroke="black" stroke-width="1"/>
<circle cx="0" cy="66.28" fill="red" r="3" stroke="black" stroke-width="1"/>
<circle cx="35.5" cy="0" fill="red" r="3" stroke="black" stroke-width="1"/>
<circle cx="90.5" cy="0" fill="red" r="3" stroke="black" stroke-width="1"/>
<circle cx="166.87" cy="0" fill="red" r="3" stroke="black" stroke-width="1"/>
<circle cx="204.06" cy="0" fill="red" r="3" stroke="black" stroke-width="1"/>
<circle cx="199.5" cy="0" fill="red" r="3" stroke="black" stroke-width="1"/>
<circle cx="190.14000000000001" cy="0" fill="red" r="3" stroke="black" stroke-width="1"/>
<circle cx="1.23" cy="66.28" fill="red" r="3" stroke="black" stroke-width="1"/>
<circle cx="48.1" cy="0" fill="red" r="3" stroke="black" stroke-width="1"/>
<circle cx="35.5" cy="0" fill="red" r="3" stroke="black" stroke-width="1"/>
<circle cx="51.26" cy="0" fill="red" r="3" stroke="black" stroke-width="1"/>
<circle cx="35.5" cy="0" fill="red" r="3" stroke="black" stroke-width="1"/>
<circle cx="35.5" cy="0" fill="red" r="3" stroke="black" stroke-width="1"/>
<circle cx="27.62" cy="0" fill="red" r="3" stroke="black" stroke-width="1"/>
<circle cx="35.5" cy="0" fill="red" r="3" stroke="black" stroke-width="1"/>
<circle cx="31.5" cy="0" fill="red" r="3" stroke="black" stroke-width="1"/>
<circle cx="35.5" cy="0" fill="red" r="3" stroke="black" stroke-width="1"/>
<circle cx="27.62" cy="0" fill="red" r="3" stroke="black" stroke-width="1"/>
</svg>