<svg viewBox="0 0 5000 7000" xmlns="http://www.w3.org/2000/svg">
<path d="M2813,3819 L2813,4251 z" fill="none" stroke="black" stroke-width="1"/>
<path d="M776,2175 L776,1956 z" fill="none" stroke="black" stroke-width="1"/>
<path d="M7110.05,11672.26 L7110.05,11630.92 z" fill="none" stroke="black" stroke-width="1"/>
<path d="M2924,3652 L2924,3433 z" fill="none" stroke="black" stroke-width="1"/>
<path d="M1493,4649 L1493,4559 z" fill="none" stroke="black" stroke-width="1"/>
<path d="M2535,3652 L2535,3433 z" fill="none" stroke="black" stroke-width="1"/>
<path d="M3606,1652 L3606,2084 z" fill="none" stroke="black" stroke-width="1"/>
<path d="M2796,4542 L2796,4974 z" fill="none" stroke="black" stroke-width="1"/>
<path d="M3200,4681 L3200,4575 z" fill="none" stroke="black" stroke-width="1"/>
<path d="M2124,4390 L2124,4171 z" fill="none" stroke="black" stroke-width="1"/>
<path d="M3471,4681 L3471,4524 z" fill="none" stroke="black" stroke-width="1"/>
<path d="M1987,4542 L1987,4974 z" fill="none" stroke="black" stroke-width="1"/>
<path d="M1217,1652 L1217,2084 z" fill="none" stroke="black" stroke-width="1"/>
<path d="M2209,4681 L2209,4574 z" fill="none" stroke="black" stroke-width="1"/>
<path d="M2031,3819 L2031,4251 z" fill="none" stroke="black" stroke-width="1"/>
<path d="M1929,1452 L1929,1233 z" fill="none" stroke="black" stroke-width="1"/>
<path d="M3018,4681 L3018,4574 z" fill="none" stroke="black" stroke-width="1"/>
<path d="M766,4819 L766,5046 z" fill="none" stroke="black" stroke-width="1"/>
<path d="M1763,1452 L1763,1233 z" fill="none" stroke="black" stroke-width="1"/>
<path d="M2301,4665 L2301,4567 z" fill="none" stroke="black" stroke-width="1"/>
<path d="M1550,3636 L1550,3417 z" fill="none" stroke="black" stroke-width="1"/>
<path d="M810,2897 L810,2678 z" fill="none" stroke="black" stroke-width="1"/>
<path d="M2916,2897 L2916,2678 z" fill="none" stroke="black" stroke-width="1"/>
<path d="M3164,4390 L3164,4171 z" fill="none" stroke="black" stroke-width="1"/>
<path d="M3166,3652 L3166,3433 z" fill="none" stroke="black" stroke-width="1"/>
<path d="M8500.02,11630.92 L8500.02,11672.26 z" fill="none" stroke="black" stroke-width="1"/>
<path d="M1593,2897 L1593,2678 z" fill="none" stroke="black" stroke-width="1"/>
<path d="M1344,4374 L1344,4155 z" fill="none" stroke="black" stroke-width="1"/>
<path d="M3857.3,11775.6 L3857.3,11816.93 z" fill="none" stroke="black" stroke-width="1"/>
<path d="M3162,2897 L3162,2678 z" fill="none" stroke="black" stroke-width="1"/>
<path d="M2386,2175 L2386,1956 z" fill="none" stroke="black" stroke-width="1"/>
<path d="M830,1452 L830,1233 z" fill="none" stroke="black" stroke-width="1"/>
<path d="M2570,4681 L2570,4503 z" fill="none" stroke="black" stroke-width="1"/>
<path d="M3317,2897 L3317,2678 z" fill="none" stroke="black" stroke-width="1"/>
<path d="M3485,4390 L3485,4171 z" fill="none" stroke="black" stroke-width="1"/>
<path d="M2660,4601 L2660,4503 z" fill="none" stroke="black" stroke-width="1"/>
<path d="M775,3636 L775,3417 z" fill="none" stroke="black" stroke-width="1"/>
<path d="M1365,1452 L1365,1233 z" fill="none" stroke="black" stroke-width="1"/>
<path d="M2541,2175 L2541,1956 z" fill="none" stroke="black" stroke-width="1"/>
<path d="M9200.17,11754.93 L9200.17,11713.59 z" fill="none" stroke="black" stroke-width="1"/>
<path d="M2921,2175 L2921,1956 z" fill="none" stroke="black" stroke-width="1"/>
<path d="M1995,1652 L1995,2084 z" fill="none" stroke="black" stroke-width="1"/>
<path d="M3164,2175 L3164,1956 z" fill="none" stroke="black" stroke-width="1"/>
<path d="M1748,2897 L1748,2678 z" fill="none" stroke="black" stroke-width="1"/>
<path d="M2692,4390 L2692,4171 z" fill="none" stroke="black" stroke-width="1"/>
<path d="M1308,3636 L1308,3417 z" fill="none" stroke="black" stroke-width="1"/>
<path d="M2143,1452 L2143,1233 z" fill="none" stroke="black" stroke-width="1"/>
<path d="M3290,4601 L3290,4503 z" fill="none" stroke="black" stroke-width="1"/>
<path d="M3319,4390 L3319,4171 z" fill="none" stroke="black" stroke-width="1"/>
<path d="M965,2897 L965,2678 z" fill="none" stroke="black" stroke-width="1"/>
<path d="M1310,2175 L1310,1956 z" fill="none" stroke="black" stroke-width="1"/>
<path d="M2541,1452 L2541,1233 z" fill="none" stroke="black" stroke-width="1"/>
<path d="M2131,2897 L2131,2678 z" fill="none" stroke="black" stroke-width="1"/>
<path d="M1097,2175 L1097,1956 z" fill="none" stroke="black" stroke-width="1"/>
<path d="M1035,4819 L1035,5046 z" fill="none" stroke="black" stroke-width="1"/>
<path d="M2077,4835 L2077,5046 z" fill="none" stroke="black" stroke-width="1"/>
<path d="M7502.75,534.01 L7502.75,1399.49 z" fill="none" stroke="black" stroke-width="1"/>
<path d="M1915,2897 L1915,2678 z" fill="none" stroke="black" stroke-width="1"/>
<path d="M3429,4835 L3429,5046 z" fill="none" stroke="black" stroke-width="1"/>
<path d="M3606,929 L3606,1361 z" fill="none" stroke="black" stroke-width="1"/>
<path d="M1588,4374 L1588,4155 z" fill="none" stroke="black" stroke-width="1"/>
<path d="M2828,1652 L2828,2084 z" fill="none" stroke="black" stroke-width="1"/>
<path d="M2526,4390 L2526,4171 z" fill="none" stroke="black" stroke-width="1"/>
<path d="M3321,3652 L3321,3433 z" fill="none" stroke="black" stroke-width="1"/>
<path d="M3606,3819 L3606,4251 z" fill="none" stroke="black" stroke-width="1"/>
<path d="M1272,929 L1272,1361 z" fill="none" stroke="black" stroke-width="1"/>
<path d="M2921,4390 L2921,4171 z" fill="none" stroke="black" stroke-width="1"/>
<path d="M1130,4374 L1130,4155 z" fill="none" stroke="black" stroke-width="1"/>
<path d="M6174.78,11858.27 L6174.78,11816.93 z" fill="none" stroke="black" stroke-width="1"/>
<path d="M2886,4835 L2886,5046 z" fill="none" stroke="black" stroke-width="1"/>
<path d="M1910,4374 L1910,4155 z" fill="none" stroke="black" stroke-width="1"/>
<path d="M2820,3097 L2820,3529 z" fill="none" stroke="black" stroke-width="1"/>
<path d="M1401,4665 L1401,4558 z" fill="none" stroke="black" stroke-width="1"/>
<path d="M3319,2175 L3319,1956 z" fill="none" stroke="black" stroke-width="1"/>
<path d="M3561,4665 L3561,4535 z" fill="none" stroke="black" stroke-width="1"/>
<path d="M2701,2897 L2701,2678 z" fill="none" stroke="black" stroke-width="1"/>
<path d="M2087.54,11837.6 L2087.54,11796.27 z" fill="none" stroke="black" stroke-width="1"/>
<path d="M4089.82,11837.6 L4089.82,11796.27 z" fill="none" stroke="black" stroke-width="1"/>
<path d="M2317.48,11610.25 L2317.48,11651.59 z" fill="none" stroke="black" stroke-width="1"/>
<path d="M1095,3636 L1095,3417 z" fill="none" stroke="black" stroke-width="1"/>
<path d="M2534,2897 L2534,2678 z" fill="none" stroke="black" stroke-width="1"/>
<path d="M304,3097 L304,3529 z" fill="none" stroke="black" stroke-width="1"/>
<path d="M1608,1452 L1608,1233 z" fill="none" stroke="black" stroke-width="1"/>
<path d="M2707,2175 L2707,1956 z" fill="none" stroke="black" stroke-width="1"/>
<path d="M718,4649 L718,4559 z" fill="none" stroke="black" stroke-width="1"/>
<path d="M2752,4649 L2752,4503 z" fill="none" stroke="black" stroke-width="1"/>
<path d="M5944.84,11796.27 L5944.84,11837.6 z" fill="none" stroke="black" stroke-width="1"/>
<path d="M1990,3097 L1990,3529 z" fill="none" stroke="black" stroke-width="1"/>
<path d="M3606,2374 L3606,2806 z" fill="none" stroke="black" stroke-width="1"/>
<path d="M304,1652 L304,2084 z" fill="none" stroke="black" stroke-width="1"/>
<path d="M1709,2175 L1709,1956 z" fill="none" stroke="black" stroke-width="1"/>
<path d="M494,4819 L494,5046 z" fill="none" stroke="black" stroke-width="1"/>
<path d="M2828,929 L2828,1361 z" fill="none" stroke="black" stroke-width="1"/>
<path d="M3485,2175 L3485,1956 z" fill="none" stroke="black" stroke-width="1"/>
<path d="M2291.64,1399.49 L2291.64,534.01 z" fill="none" stroke="black" stroke-width="1"/>
<path d="M809,4374 L809,4155 z" fill="none" stroke="black" stroke-width="1"/>
<path d="M2921,1452 L2921,1233 z" fill="none" stroke="black" stroke-width="1"/>
<path d="M3382,4649 L3382,4513 z" fill="none" stroke="black" stroke-width="1"/>
<path d="M1347,2897 L1347,2678 z" fill="none" stroke="black" stroke-width="1"/>
<path d="M931,2175 L931,1956 z" fill="none" stroke="black" stroke-width="1"/>
<path d="M304,2374 L304,2806 z" fill="none" stroke="black" stroke-width="1"/>
<path d="M3486,3652 L3486,3433 z" fill="none" stroke="black" stroke-width="1"/>
<path d="M964,4374 L964,4155 z" fill="none" stroke="black" stroke-width="1"/>
<path d="M304,3819 L304,4251 z" fill="none" stroke="black" stroke-width="1"/>
<path d="M1852,4665 L1852,4524 z" fill="none" stroke="black" stroke-width="1"/>
<path d="M587,1452 L587,1233 z" fill="none" stroke="black" stroke-width="1"/>
<path d="M2379,2897 L2379,2678 z" fill="none" stroke="black" stroke-width="1"/>
<path d="M562,2897 L562,2678 z" fill="none" stroke="black" stroke-width="1"/>
<path d="M2380,3652 L2380,3433 z" fill="none" stroke="black" stroke-width="1"/>
<path d="M897,4649 L897,4495 z" fill="none" stroke="black" stroke-width="1"/>
<path d="M304,4542 L304,4974 z" fill="none" stroke="black" stroke-width="1"/>
<path d="M1743,4374 L1743,4155 z" fill="none" stroke="black" stroke-width="1"/>
<path d="M3319,1452 L3319,1233 z" fill="none" stroke="black" stroke-width="1"/>
<path d="M2386,1452 L2386,1233 z" fill="none" stroke="black" stroke-width="1"/>
<path d="M2700,3652 L2700,3433 z" fill="none" stroke="black" stroke-width="1"/>
<path d="M2140,2175 L2140,1956 z" fill="none" stroke="black" stroke-width="1"/>
<path d="M1870,3636 L1870,3417 z" fill="none" stroke="black" stroke-width="1"/>
<path d="M1151,1452 L1151,1233 z" fill="none" stroke="black" stroke-width="1"/>
<path d="M987,4665 L987,4495 z" fill="none" stroke="black" stroke-width="1"/>
<path d="M1077,4585 L1077,4495 z" fill="none" stroke="black" stroke-width="1"/>
<path d="M1215,3097 L1215,3529 z" fill="none" stroke="black" stroke-width="1"/>
<path d="M3164,1452 L3164,1233 z" fill="none" stroke="black" stroke-width="1"/>
<path d="M626,4665 L626,4558 z" fill="none" stroke="black" stroke-width="1"/>
<path d="M1541,4819 L1541,5046 z" fill="none" stroke="black" stroke-width="1"/>
<path d="M1269,4819 L1269,5046 z" fill="none" stroke="black" stroke-width="1"/>
<path d="M2348,4835 L2348,5046 z" fill="none" stroke="black" stroke-width="1"/>
<path d="M2707,1452 L2707,1233 z" fill="none" stroke="black" stroke-width="1"/>
<path d="M1810,4819 L1810,5046 z" fill="none" stroke="black" stroke-width="1"/>
<path d="M3606,4542 L3606,4974 z" fill="none" stroke="black" stroke-width="1"/>
<path d="M2371,4390 L2371,4171 z" fill="none" stroke="black" stroke-width="1"/>
<path d="M808,4665 L808,4567 z" fill="none" stroke="black" stroke-width="1"/>
<path d="M2618,4835 L2618,5046 z" fill="none" stroke="black" stroke-width="1"/>
<path d="M1583,4665 L1583,4567 z" fill="none" stroke="black" stroke-width="1"/>
<path d="M3158,4835 L3158,5046 z" fill="none" stroke="black" stroke-width="1"/>
<path d="M562,4374 L562,4155 z" fill="none" stroke="black" stroke-width="1"/>
<path d="M2390,4681 L2390,4575 z" fill="none" stroke="black" stroke-width="1"/>
<path d="M3606,3097 L3606,3529 z" fill="none" stroke="black" stroke-width="1"/>
<path d="M2050,929 L2050,1361 z" fill="none" stroke="black" stroke-width="1"/>
<path d="M8267.5,11858.27 L8267.5,11816.93 z" fill="none" stroke="black" stroke-width="1"/>
<path d="M1673,4585 L1673,4503 z" fill="none" stroke="black" stroke-width="1"/>
<path d="M1132,2897 L1132,2678 z" fill="none" stroke="black" stroke-width="1"/>
<path d="M1855.02,11775.6 L1855.02,11816.93 z" fill="none" stroke="black" stroke-width="1"/>
<path d="M4322.35,11630.92 L4322.35,11672.26 z" fill="none" stroke="black" stroke-width="1"/>
<path d="M1705,3636 L1705,3417 z" fill="none" stroke="black" stroke-width="1"/>
<path d="M304,929 L304,1361 z" fill="none" stroke="black" stroke-width="1"/>
<path d="M2134,3652 L2134,3433 z" fill="none" stroke="black" stroke-width="1"/>
<path d="M1167,4617 L1167,4495 z" fill="none" stroke="black" stroke-width="1"/>
<path d="M529,3636 L529,3417 z" fill="none" stroke="black" stroke-width="1"/>
<path d="M1251,3819 L1251,4251 z" fill="none" stroke="black" stroke-width="1"/>
<path d="M3110,4665 L3110,4567 z" fill="none" stroke="black" stroke-width="1"/>
<path d="M1942,4649 L1942,4535 z" fill="none" stroke="black" stroke-width="1"/>
<path d="M3485,1452 L3485,1233 z" fill="none" stroke="black" stroke-width="1"/>
<path d="M3484,2897 L3484,2678 z" fill="none" stroke="black" stroke-width="1"/>
<path d="M3015.05,11651.59 L3015.05,11610.25 z" fill="none" stroke="black" stroke-width="1"/>
<path d="M1211,4542 L1211,4974 z" fill="none" stroke="black" stroke-width="1"/>
<path d="M2038,2374 L2038,2806 z" fill="none" stroke="black" stroke-width="1"/>
<path d="M8034.97,11796.27 L8034.97,11837.6 z" fill="none" stroke="black" stroke-width="1"/>
<path d="M985,1452 L985,1233 z" fill="none" stroke="black" stroke-width="1"/>
<path d="M2480,4665 L2480,4503 z" fill="none" stroke="black" stroke-width="1"/>
<path d="M2823,2374 L2823,2806 z" fill="none" stroke="black" stroke-width="1"/>
<path d="M1762,4617 L1762,4513 z" fill="none" stroke="black" stroke-width="1"/>
<path d="M930,3636 L930,3417 z" fill="none" stroke="black" stroke-width="1"/>
<path d="M529,2175 L529,1956 z" fill="none" stroke="black" stroke-width="1"/>
<path d="M1875,2175 L1875,1956 z" fill="none" stroke="black" stroke-width="1"/>
<path d="M1254,2374 L1254,2806 z" fill="none" stroke="black" stroke-width="1"/>
<path d="M5017.33,11754.93 L5017.33,11713.59 z" fill="none" stroke="black" stroke-width="1"/>
<path d="M6407.31,11630.92 L6407.31,11672.26 z" fill="none" stroke="black" stroke-width="1"/>
<path d="M1554,2175 L1554,1956 z" fill="none" stroke="black" stroke-width="1"/>
</svg>